<svg width="144" height="24" viewBox="0 0 144 24" fill="none" xmlns="http://www.w3.org/2000/svg">
<g id="Frame" clip-path="url(#clip0_194_301)">
<path id="Vector" d="M0 14.8883C0 9.32083 3.10196 5.7627 8.1754 5.7627C13.2488 5.7627 16.3508 9.30688 16.3508 14.8883C16.3508 20.4697 13.2488 23.9999 8.1754 23.9999C3.10196 23.9999 0 20.4557 0 14.8883ZM12.5457 16.1999V13.5627C12.5457 10.3255 10.8086 8.66502 8.1754 8.66502C5.54217 8.66502 3.80507 10.3255 3.80507 13.5627V16.1999C3.80507 19.4371 5.54217 21.0976 8.1754 21.0976C10.8086 21.0976 12.5457 19.4511 12.5457 16.1999ZM6.38315 14.8883C6.38315 16.1441 6.93461 16.7022 8.1754 16.7022C9.41618 16.7022 9.96764 16.1441 9.96764 14.8883C9.96764 13.6325 9.41618 13.0743 8.1754 13.0743C6.93461 13.0743 6.38315 13.6325 6.38315 14.8883Z" fill="black"/>
<path id="Vector_2" d="M28.304 13.0742C27.0632 13.0742 26.5117 13.6324 26.5117 14.8882C26.5117 16.144 27.0632 16.7021 28.304 16.7021C29.5447 16.7021 30.0962 16.144 30.0962 14.8882C30.0962 13.6324 29.5447 13.0742 28.304 13.0742ZM28.304 13.0742C27.0632 13.0742 26.5117 13.6324 26.5117 14.8882C26.5117 16.144 27.0632 16.7021 28.304 16.7021C29.5447 16.7021 30.0962 16.144 30.0962 14.8882C30.0962 13.6324 29.5447 13.0742 28.304 13.0742ZM28.304 13.0742C27.0632 13.0742 26.5117 13.6324 26.5117 14.8882C26.5117 16.144 27.0632 16.7021 28.304 16.7021C29.5447 16.7021 30.0962 16.144 30.0962 14.8882C30.0962 13.6324 29.5447 13.0742 28.304 13.0742Z" fill="black"/>
<path id="Vector_3" d="M29.8755 5.76255C27.3387 5.76255 25.6706 7.04627 24.6642 9.13929H24.4712V-0.000244141H20.8315V20.623H16.2544V23.5951H24.4712V20.623H24.6642C25.6706 22.716 27.3387 23.9998 29.8755 23.9998C33.9149 23.9998 36.5206 20.8602 36.5206 14.8742C36.5068 8.90208 33.9011 5.76255 29.8755 5.76255ZM32.6741 16.2974C32.6741 19.13 31.1025 20.9998 28.3727 20.9998C26.2634 20.9998 24.4712 19.9114 24.4712 17.7905V11.9858C24.4712 9.85092 26.2772 8.7765 28.3727 8.7765C31.1025 8.7765 32.6741 10.6323 32.6741 13.4788V16.2974Z" fill="black"/>
<path id="Vector_4" d="M38.3955 20.6647L40.6289 18.6415C42.1316 20.302 43.9653 21.2089 46.5295 21.2089C48.8595 21.2089 50.4725 20.4275 50.4725 18.7113C50.4725 17.2182 49.3006 16.8136 47.8393 16.6182L45.0957 16.1857C42.3936 15.781 39.3606 14.8043 39.3606 11.2182C39.3606 7.67404 42.2971 5.77637 46.7088 5.77637C49.9072 5.77637 52.2096 6.79497 53.7812 8.51125L51.7408 10.674C50.8447 9.62753 49.2731 8.58102 46.5709 8.58102C44.1996 8.58102 42.9313 9.39032 42.9313 10.9113C42.9313 12.4043 44.1307 12.8089 45.5645 13.0043L48.308 13.4368C51.0515 13.8415 54.0432 14.7903 54.0432 18.3624C54.0432 21.8787 51.1756 23.9996 46.4606 23.9996C42.7658 23.9996 40.0223 22.688 38.3955 20.6647Z" fill="black"/>
<path id="Vector_5" d="M56.249 14.9162C56.249 9.30688 59.4475 5.7627 64.3555 5.7627C69.1945 5.7627 72.2689 9.27898 72.2689 14.4139V15.7953H59.9162V16.3673C59.9162 19.1022 61.7223 21.0278 64.6864 21.0278C66.8922 21.0278 68.4914 19.9813 69.4565 18.3627L71.7313 20.386C70.5594 22.4092 68.1606 23.9999 64.6174 23.9999C59.351 23.9999 56.249 20.4557 56.249 14.9162ZM59.9162 13.1999V13.4371H68.5604V13.1022C68.5604 10.3673 66.8922 8.5813 64.3555 8.5813C61.7498 8.56735 59.9162 10.4929 59.9162 13.1999Z" fill="black"/>
<path id="Vector_6" d="M74.3999 20.4558H78.977V8.97209H74.3999V6H82.6167V10.6326H82.8235C83.4852 8.20465 84.9879 6 88.5035 6H90.5715V9.51628H87.1662C84.2021 9.51628 82.6304 11.5116 82.6304 13.9395V20.4558H88.8757V23.4279H74.3999V20.4558Z" fill="black"/>
<path id="Vector_7" d="M109.492 14.9162C109.492 9.30688 112.691 5.7627 117.599 5.7627C122.438 5.7627 125.512 9.27898 125.512 14.4139V15.7953H113.16V16.3673C113.16 19.1022 114.966 21.0278 117.93 21.0278C120.136 21.0278 121.735 19.9813 122.7 18.3627L124.975 20.386C123.803 22.4092 121.404 23.9999 117.861 23.9999C112.608 23.9999 109.492 20.4557 109.492 14.9162ZM113.173 13.1999V13.4371H121.818V13.1022C121.818 10.3673 120.149 8.5813 117.613 8.5813C115.007 8.56735 113.173 10.4929 113.173 13.1999Z" fill="black"/>
<path id="Vector_8" d="M127.856 20.6231H132.433V9.13933H127.856V6.16724H136.073V10.7998H136.28C136.941 8.37189 138.444 6.16724 141.96 6.16724H144.028V9.68352H140.622C137.658 9.68352 136.086 11.6789 136.086 14.1068V20.6231H142.332V23.5951H127.856V20.6231Z" fill="black"/>
<path id="Vector_9" d="M98.4356 23.5951L92.2593 6.16724H96.0368L98.4081 13.5347L100.641 20.5254H100.848L103.082 13.5347L105.453 6.16724H109.093L102.916 23.5951H98.4356Z" fill="black"/>
</g>
<defs>
<clipPath id="clip0_194_301">
<rect width="144" height="24" fill="white"/>
</clipPath>
</defs>
</svg>
