<svg width="75" height="16" viewBox="0 0 75 16" fill="none" xmlns="http://www.w3.org/2000/svg">
<g id="Logotype">
<path d="M0.153076 12.4507V0.895174H7.58165V2.87613H2.33212V5.63295H7.11943V7.6139H2.33212V10.4698H7.6807V12.4507H0.153076Z" fill="black"/>
<path d="M8.53434 15.7523V4.26279H10.5813V5.25327H10.8785C11.0656 4.93412 11.3572 4.65348 11.7534 4.41136C12.1496 4.15824 12.7163 4.03168 13.4537 4.03168C14.114 4.03168 14.7248 4.19676 15.2861 4.52692C15.8474 4.84607 16.2986 5.3193 16.6397 5.9466C16.9809 6.5739 17.1515 7.33327 17.1515 8.2247V8.48882C17.1515 9.38025 16.9809 10.1396 16.6397 10.7669C16.2986 11.3942 15.8474 11.873 15.2861 12.2031C14.7248 12.5223 14.114 12.6818 13.4537 12.6818C12.9585 12.6818 12.5403 12.6213 12.1991 12.5003C11.8689 12.3902 11.5993 12.2471 11.3902 12.071C11.1921 11.884 11.0325 11.6969 10.9115 11.5098H10.6143V15.7523H8.53434ZM12.8264 10.866C13.4757 10.866 14.0095 10.6624 14.4277 10.2552C14.8569 9.83697 15.0715 9.23168 15.0715 8.4393V8.27422C15.0715 7.48184 14.8569 6.88205 14.4277 6.47486C13.9985 6.05666 13.4647 5.84756 12.8264 5.84756C12.1881 5.84756 11.6543 6.05666 11.2251 6.47486C10.7959 6.88205 10.5813 7.48184 10.5813 8.27422V8.4393C10.5813 9.23168 10.7959 9.83697 11.2251 10.2552C11.6543 10.6624 12.1881 10.866 12.8264 10.866Z" fill="black"/>
<path d="M18.236 12.4507V4.26279H20.316V12.4507H18.236ZM19.276 3.30533C18.9018 3.30533 18.5826 3.18427 18.3185 2.94216C18.0654 2.70004 17.9388 2.38089 17.9388 1.9847C17.9388 1.58851 18.0654 1.26935 18.3185 1.02724C18.5826 0.785121 18.9018 0.664062 19.276 0.664062C19.6612 0.664062 19.9803 0.785121 20.2334 1.02724C20.4866 1.26935 20.6131 1.58851 20.6131 1.9847C20.6131 2.38089 20.4866 2.70004 20.2334 2.94216C19.9803 3.18427 19.6612 3.30533 19.276 3.30533Z" fill="black"/>
<path d="M25.6418 12.6818C24.8495 12.6818 24.1286 12.5168 23.4793 12.1866C22.841 11.8564 22.3348 11.3777 21.9606 10.7504C21.5864 10.1231 21.3993 9.36375 21.3993 8.47232V8.24121C21.3993 7.34978 21.5864 6.59041 21.9606 5.96311C22.3348 5.33581 22.841 4.85708 23.4793 4.52692C24.1286 4.19676 24.8495 4.03168 25.6418 4.03168C26.4232 4.03168 27.0945 4.16925 27.6558 4.44438C28.2171 4.71951 28.6683 5.09919 29.0095 5.58343C29.3616 6.05666 29.5927 6.59591 29.7028 7.20121L27.6888 7.63041C27.6448 7.30025 27.5458 7.00311 27.3917 6.73898C27.2376 6.47486 27.0175 6.26576 26.7314 6.11168C26.4562 5.95761 26.1096 5.88057 25.6914 5.88057C25.2732 5.88057 24.8935 5.97412 24.5523 6.16121C24.2222 6.33729 23.958 6.60692 23.7599 6.97009C23.5729 7.32226 23.4793 7.75697 23.4793 8.27422V8.4393C23.4793 8.95655 23.5729 9.39676 23.7599 9.75994C23.958 10.1121 24.2222 10.3817 24.5523 10.5688C24.8935 10.7449 25.2732 10.833 25.6914 10.833C26.3187 10.833 26.7919 10.6734 27.1111 10.3542C27.4412 10.0241 27.6503 9.59486 27.7384 9.0666L29.7523 9.54533C29.6093 10.1286 29.3616 10.6624 29.0095 11.1466C28.6683 11.6198 28.2171 11.994 27.6558 12.2691C27.0945 12.5443 26.4232 12.6818 25.6418 12.6818Z" fill="black"/>
<path d="M33.7627 12.5828C33.1244 12.5828 32.5631 12.4397 32.0789 12.1536C31.6057 11.8564 31.237 11.4492 30.9729 10.932C30.7088 10.4148 30.5767 9.82047 30.5767 9.14914V4.26279H32.6567V8.98406C32.6567 9.60036 32.8053 10.0626 33.1024 10.3707C33.4105 10.6789 33.8453 10.833 34.4065 10.833C35.0448 10.833 35.5401 10.6239 35.8922 10.2057C36.2444 9.77644 36.4205 9.18216 36.4205 8.42279V4.26279H38.5005V12.4507H36.4535V11.3777H36.1564C36.0243 11.6528 35.7767 11.9225 35.4135 12.1866C35.0503 12.4507 34.5001 12.5828 33.7627 12.5828Z" fill="black"/>
<path d="M39.9897 12.4507V4.26279H42.0367V5.18724H42.3338C42.4549 4.85708 42.653 4.61496 42.9281 4.46089C43.2142 4.30681 43.5444 4.22978 43.9186 4.22978H44.9091V6.07867H43.8856C43.3573 6.07867 42.9226 6.22173 42.5814 6.50787C42.2403 6.783 42.0697 7.21221 42.0697 7.79549V12.4507H39.9897Z" fill="black"/>
<path d="M45.7094 12.4507V4.26279H47.7894V12.4507H45.7094ZM46.7494 3.30533C46.3753 3.30533 46.0561 3.18427 45.792 2.94216C45.5389 2.70004 45.4123 2.38089 45.4123 1.9847C45.4123 1.58851 45.5389 1.26935 45.792 1.02724C46.0561 0.785121 46.3753 0.664062 46.7494 0.664062C47.1346 0.664062 47.4538 0.785121 47.7069 1.02724C47.96 1.26935 48.0866 1.58851 48.0866 1.9847C48.0866 2.38089 47.96 2.70004 47.7069 2.94216C47.4538 3.18427 47.1346 3.30533 46.7494 3.30533Z" fill="black"/>
<path d="M53.1648 12.6818C52.3504 12.6818 51.6186 12.5168 50.9693 12.1866C50.32 11.8564 49.8082 11.3777 49.434 10.7504C49.0599 10.1231 48.8728 9.36925 48.8728 8.48882V8.2247C48.8728 7.34427 49.0599 6.59041 49.434 5.96311C49.8082 5.33581 50.32 4.85708 50.9693 4.52692C51.6186 4.19676 52.3504 4.03168 53.1648 4.03168C53.9792 4.03168 54.7111 4.19676 55.3604 4.52692C56.0097 4.85708 56.5214 5.33581 56.8956 5.96311C57.2698 6.59041 57.4569 7.34427 57.4569 8.2247V8.48882C57.4569 9.36925 57.2698 10.1231 56.8956 10.7504C56.5214 11.3777 56.0097 11.8564 55.3604 12.1866C54.7111 12.5168 53.9792 12.6818 53.1648 12.6818ZM53.1648 10.833C53.8031 10.833 54.3314 10.6294 54.7496 10.2222C55.1678 9.80396 55.3769 9.20967 55.3769 8.4393V8.27422C55.3769 7.50385 55.1678 6.91507 54.7496 6.50787C54.3424 6.08967 53.8141 5.88057 53.1648 5.88057C52.5265 5.88057 51.9983 6.08967 51.5801 6.50787C51.1619 6.91507 50.9528 7.50385 50.9528 8.27422V8.4393C50.9528 9.20967 51.1619 9.80396 51.5801 10.2222C51.9983 10.6294 52.5265 10.833 53.1648 10.833Z" fill="black"/>
<path d="M61.6714 12.5828C61.0331 12.5828 60.4719 12.4397 59.9876 12.1536C59.5144 11.8564 59.1457 11.4492 58.8816 10.932C58.6175 10.4148 58.4854 9.82047 58.4854 9.14914V4.26279H60.5654V8.98406C60.5654 9.60036 60.714 10.0626 61.0111 10.3707C61.3193 10.6789 61.754 10.833 62.3153 10.833C62.9536 10.833 63.4488 10.6239 63.801 10.2057C64.1531 9.77644 64.3292 9.18216 64.3292 8.42279V4.26279H66.4092V12.4507H64.3622V11.3777H64.0651C63.933 11.6528 63.6854 11.9225 63.3222 12.1866C62.9591 12.4507 62.4088 12.5828 61.6714 12.5828Z" fill="black"/>
<path d="M71.2991 12.6818C70.2315 12.6818 69.3566 12.4507 68.6743 11.9885C67.992 11.5263 67.5793 10.866 67.4362 10.0076L69.3511 9.51232C69.4282 9.8975 69.5547 10.2001 69.7308 10.4203C69.9179 10.6404 70.1435 10.7999 70.4076 10.899C70.6828 10.987 70.9799 11.031 71.2991 11.031C71.7833 11.031 72.141 10.9485 72.3721 10.7834C72.6032 10.6073 72.7187 10.3927 72.7187 10.1396C72.7187 9.8865 72.6087 9.6939 72.3886 9.56184C72.1685 9.41877 71.8163 9.30322 71.3321 9.21517L70.8699 9.13263C70.2976 9.02258 69.7748 8.87401 69.3016 8.68692C68.8284 8.48883 68.4487 8.2192 68.1625 7.87803C67.8764 7.53687 67.7333 7.09666 67.7333 6.5574C67.7333 5.743 68.0305 5.12121 68.6248 4.692C69.2191 4.25179 70.0004 4.03168 70.9689 4.03168C71.8823 4.03168 72.6417 4.23528 73.247 4.64248C73.8523 5.04967 74.2485 5.58343 74.4356 6.24375L72.5041 6.83803C72.4161 6.41983 72.2345 6.12269 71.9594 5.9466C71.6952 5.77052 71.3651 5.68248 70.9689 5.68248C70.5727 5.68248 70.2701 5.75401 70.061 5.89708C69.8519 6.02914 69.7473 6.21623 69.7473 6.45835C69.7473 6.72248 69.8574 6.92057 70.0775 7.05263C70.2976 7.17369 70.5947 7.26724 70.9689 7.33327L71.4311 7.41581C72.0474 7.52586 72.6032 7.67443 73.0984 7.86152C73.6047 8.03761 74.0009 8.29623 74.287 8.6374C74.5841 8.96756 74.7327 9.41877 74.7327 9.99105C74.7327 10.8495 74.4191 11.5153 73.7918 11.9885C73.1755 12.4507 72.3446 12.6818 71.2991 12.6818Z" fill="black"/>
</g>
</svg>
