<svg width="76" height="15" viewBox="0 0 76 15" fill="none" xmlns="http://www.w3.org/2000/svg">
<g id="Logotype">
<path d="M0.0986328 11.034L3.9999 0.366465H6.19437L10.0956 11.034H8.02309L7.16968 8.56523H3.00935L2.1407 11.034H0.0986328ZM3.54272 7.04129H6.63631L5.0819 2.60665L3.54272 7.04129Z" fill="black"/>
<path d="M14.0081 11.2169C13.236 11.2169 12.5553 11.0492 11.966 10.714C11.3768 10.3787 10.9094 9.91137 10.564 9.31196C10.2287 8.71254 10.0611 8.02677 10.0611 7.25465C10.0611 6.48252 10.2287 5.79675 10.564 5.19734C10.9094 4.59792 11.3768 4.13058 11.966 3.79532C12.5553 3.46005 13.236 3.29242 14.0081 3.29242C14.9733 3.29242 15.786 3.54641 16.4464 4.05438C17.1068 4.5522 17.5284 5.24305 17.7113 6.12693H15.6539C15.5524 5.76119 15.3492 5.47672 15.0444 5.27353C14.7497 5.06018 14.3992 4.95351 13.9929 4.95351C13.4544 4.95351 12.9972 5.1567 12.6213 5.56308C12.2454 5.96946 12.0575 6.53332 12.0575 7.25465C12.0575 7.97597 12.2454 8.53983 12.6213 8.94621C12.9972 9.35259 13.4544 9.55579 13.9929 9.55579C14.3992 9.55579 14.7497 9.45419 15.0444 9.251C15.3492 9.04781 15.5524 8.75826 15.6539 8.38236H17.7113C17.5284 9.23576 17.1068 9.92153 16.4464 10.4397C15.786 10.9578 14.9733 11.2169 14.0081 11.2169Z" fill="black"/>
<path d="M18.6806 11.034V3.47529H20.4027L20.5703 4.49633C20.8141 4.13058 21.1342 3.84103 21.5304 3.62768C21.9368 3.40417 22.4041 3.29242 22.9324 3.29242C24.1007 3.29242 24.9287 3.74452 25.4164 4.64872C25.6907 4.23218 26.0565 3.90199 26.5136 3.65816C26.981 3.41433 27.489 3.29242 28.0376 3.29242C29.0231 3.29242 29.7799 3.58705 30.3082 4.1763C30.8365 4.76555 31.1007 5.62912 31.1007 6.76699V11.034H29.15V6.94986C29.15 6.29965 29.0231 5.80183 28.7691 5.4564C28.5252 5.11098 28.1442 4.93827 27.6261 4.93827C27.0978 4.93827 26.6711 5.1313 26.346 5.51736C26.0311 5.90342 25.8736 6.44188 25.8736 7.13273V11.034H23.923V6.94986C23.923 6.29965 23.796 5.80183 23.542 5.4564C23.288 5.11098 22.8968 4.93827 22.3685 4.93827C21.8504 4.93827 21.4288 5.1313 21.1037 5.51736C20.7887 5.90342 20.6313 6.44188 20.6313 7.13273V11.034H18.6806Z" fill="black"/>
<path d="M35.8633 11.2169C35.1014 11.2169 34.4258 11.0543 33.8365 10.7292C33.2472 10.4041 32.785 9.94693 32.4497 9.35767C32.1145 8.76842 31.9468 8.08773 31.9468 7.3156C31.9468 6.53332 32.1094 5.83739 32.4345 5.22781C32.7697 4.61824 33.2269 4.14582 33.806 3.81056C34.3953 3.46513 35.0861 3.29242 35.8786 3.29242C36.6202 3.29242 37.2755 3.45497 37.8444 3.78008C38.4134 4.10518 38.8553 4.5522 39.1703 5.12114C39.4954 5.67991 39.6579 6.30473 39.6579 6.99558C39.6579 7.10733 39.6528 7.22417 39.6427 7.34608C39.6427 7.468 39.6376 7.59499 39.6274 7.72707H33.8822C33.9229 8.31632 34.126 8.77858 34.4918 9.11384C34.8677 9.44911 35.3198 9.61674 35.8481 9.61674C36.2443 9.61674 36.5745 9.53039 36.8386 9.35767C37.113 9.1748 37.3161 8.94113 37.4482 8.65666H39.4293C39.2871 9.13416 39.0483 9.57102 38.7131 9.96725C38.388 10.3533 37.9816 10.6581 37.4939 10.8816C37.0164 11.1051 36.4729 11.2169 35.8633 11.2169ZM35.8786 4.87731C35.4011 4.87731 34.9794 5.01446 34.6137 5.28877C34.248 5.55292 34.0143 5.9593 33.9127 6.50792H37.6768C37.6463 6.0101 37.4635 5.61388 37.1282 5.31925C36.7929 5.02462 36.3764 4.87731 35.8786 4.87731Z" fill="black"/>
<path d="M48.2824 11.2169C47.2055 11.2169 46.281 10.9883 45.5089 10.5311C44.7368 10.0638 44.1424 9.41863 43.7259 8.59571C43.3093 7.76262 43.1011 6.80255 43.1011 5.71547C43.1011 4.6284 43.3093 3.66832 43.7259 2.83524C44.1424 2.00215 44.7368 1.35194 45.5089 0.884603C46.281 0.417263 47.2055 0.183594 48.2824 0.183594C49.5625 0.183594 50.609 0.50362 51.4217 1.14367C52.2447 1.77356 52.7577 2.66253 52.9609 3.81056H50.8122C50.6801 3.23146 50.3956 2.77936 49.9588 2.45425C49.5321 2.11899 48.9631 1.95136 48.252 1.95136C47.2665 1.95136 46.4944 2.28662 45.9356 2.95715C45.3768 3.62768 45.0974 4.54712 45.0974 5.71547C45.0974 6.88382 45.3768 7.80326 45.9356 8.47379C46.4944 9.13416 47.2665 9.46435 48.252 9.46435C48.9631 9.46435 49.5321 9.31196 49.9588 9.00717C50.3956 8.69222 50.6801 8.26044 50.8122 7.71183H52.9609C52.7577 8.80906 52.2447 9.66754 51.4217 10.2873C50.609 10.907 49.5625 11.2169 48.2824 11.2169Z" fill="black"/>
<path d="M57.5069 11.2169C56.7754 11.2169 56.115 11.0492 55.5258 10.714C54.9467 10.3787 54.4844 9.91645 54.139 9.3272C53.8037 8.72778 53.6361 8.03693 53.6361 7.25465C53.6361 6.47236 53.8088 5.78659 54.1542 5.19734C54.4996 4.59792 54.9619 4.13058 55.541 3.79532C56.1303 3.46005 56.7906 3.29242 57.5221 3.29242C58.2434 3.29242 58.8937 3.46005 59.4727 3.79532C60.062 4.13058 60.5243 4.59792 60.8595 5.19734C61.205 5.78659 61.3777 6.47236 61.3777 7.25465C61.3777 8.03693 61.205 8.72778 60.8595 9.3272C60.5243 9.91645 60.062 10.3787 59.4727 10.714C58.8835 11.0492 58.2282 11.2169 57.5069 11.2169ZM57.5069 9.52531C58.0149 9.52531 58.4568 9.33735 58.8327 8.96145C59.2086 8.57539 59.3965 8.00645 59.3965 7.25465C59.3965 6.50284 59.2086 5.93898 58.8327 5.56308C58.4568 5.17702 58.0199 4.98398 57.5221 4.98398C57.004 4.98398 56.557 5.17702 56.1811 5.56308C55.8153 5.93898 55.6324 6.50284 55.6324 7.25465C55.6324 8.00645 55.8153 8.57539 56.1811 8.96145C56.557 9.33735 56.9989 9.52531 57.5069 9.52531Z" fill="black"/>
<path d="M62.3598 11.034V3.47529H64.0971L64.2799 4.89255C64.5542 4.40489 64.9251 4.01883 65.3924 3.73436C65.8699 3.43973 66.4287 3.29242 67.0687 3.29242V5.34973H66.5201C66.0934 5.34973 65.7124 5.41577 65.3772 5.54784C65.0419 5.67991 64.7777 5.9085 64.5847 6.23361C64.4018 6.55872 64.3104 7.01082 64.3104 7.58991V11.034H62.3598Z" fill="black"/>
<path d="M67.64 14.3867V3.47529H69.3772L69.5906 4.55728C69.8344 4.22202 70.1545 3.92739 70.5507 3.6734C70.9571 3.41941 71.4803 3.29242 72.1203 3.29242C72.8315 3.29242 73.4665 3.46513 74.0252 3.81056C74.584 4.15598 75.026 4.6284 75.3511 5.22781C75.6762 5.82723 75.8387 6.50792 75.8387 7.26989C75.8387 8.03185 75.6762 8.71254 75.3511 9.31196C75.026 9.90121 74.584 10.3686 74.0252 10.714C73.4665 11.0492 72.8315 11.2169 72.1203 11.2169C71.5514 11.2169 71.0536 11.1102 70.6269 10.8968C70.2002 10.6835 69.8547 10.3838 69.5906 9.99773V14.3867H67.64ZM71.7089 9.51007C72.3286 9.51007 72.8417 9.3018 73.248 8.88525C73.6544 8.46871 73.8576 7.93026 73.8576 7.26989C73.8576 6.60951 73.6544 6.06598 73.248 5.63928C72.8417 5.21257 72.3286 4.99922 71.7089 4.99922C71.079 4.99922 70.5608 5.21257 70.1544 5.63928C69.7582 6.05582 69.5601 6.59427 69.5601 7.25465C69.5601 7.91502 69.7582 8.45855 70.1544 8.88525C70.5608 9.3018 71.079 9.51007 71.7089 9.51007Z" fill="black"/>
</g>
</svg>
