<svg width="24" height="26" viewBox="0 0 24 26" fill="none" xmlns="http://www.w3.org/2000/svg">
<g id="Logomark">
<path id="Shape" d="M11.8746 1.99414C9.87168 1.99414 8.25391 3.59225 8.25391 5.57086C8.25391 7.53426 9.87168 9.13235 11.8592 9.14758C11.3662 9.13235 10.981 8.73665 10.981 8.24958C10.981 7.76255 11.3816 7.35162 11.8901 7.35162C14.0471 7.35162 18.8388 7.35162 20.9496 7.35162C22.4441 7.35162 23.6613 6.14923 23.6613 4.67289C23.6613 3.19653 22.4441 1.99414 20.9496 1.99414L11.8746 1.99414Z" fill="black"/>
<path id="Shape_2" d="M7.47255 9.14844C5.46958 9.14844 3.85181 10.7466 3.85181 12.7252C3.85181 14.6886 5.46958 16.2866 7.45713 16.3019C6.9641 16.2866 6.57892 15.8909 6.57892 15.4039C6.57892 14.9168 6.97952 14.5059 7.48797 14.5059C9.64498 14.5059 14.4367 14.5059 16.5475 14.5059C18.042 14.5059 19.2592 13.3035 19.2592 11.8272C19.2592 10.3508 18.042 9.14844 16.5475 9.14844L7.47255 9.14844Z" fill="black"/>
<path id="Shape_3" d="M4.42966 16.3008C2.28362 16.3008 0.550293 18.0218 0.550293 20.1526C0.550293 22.2671 2.28362 23.9881 4.41314 24.0045C3.88489 23.9881 3.4722 23.5619 3.4722 23.0374C3.4722 22.5129 3.90141 22.0704 4.44618 22.0704C6.75727 22.0704 11.8913 22.0704 14.1528 22.0704C15.7541 22.0704 17.0582 20.7755 17.0582 19.1856C17.0582 17.5957 15.7541 16.3008 14.1528 16.3008L4.42966 16.3008Z" fill="black"/>
</g>
</svg>
