<svg width="74" height="16" viewBox="0 0 74 16" fill="none" xmlns="http://www.w3.org/2000/svg">
<g id="Logotype">
<path d="M8.3358 4.05753C8.3358 4.62375 8.18856 5.15459 7.89409 5.65003C7.61053 6.14548 7.15791 6.54487 6.53625 6.8482C5.92549 7.15153 5.15114 7.3032 4.21319 7.3032H2.29913V11.3679H0.00878906V0.781531H4.21319C5.09661 0.781531 5.84915 0.923087 6.47081 1.2062C7.09248 1.48931 7.556 1.87859 7.86137 2.37403C8.17766 2.86948 8.3358 3.43064 8.3358 4.05753ZM4.11504 5.58937C4.74761 5.58937 5.21658 5.45792 5.52196 5.19503C5.82734 4.92203 5.98003 4.54287 5.98003 4.05753C5.98003 3.0262 5.35836 2.51053 4.11504 2.51053H2.29913V5.58937H4.11504Z" fill="black"/>
<path d="M13.332 11.5044C12.4595 11.5044 11.6742 11.3274 10.9762 10.9735C10.2782 10.6095 9.72743 10.0989 9.32389 9.4417C8.93126 8.78448 8.73495 8.02614 8.73495 7.1667C8.73495 6.30725 8.93672 5.54892 9.34025 4.8917C9.75469 4.23448 10.3164 3.72892 11.0253 3.37503C11.7342 3.01103 12.5249 2.82903 13.3974 2.82903C14.2699 2.82903 15.0606 3.01103 15.7696 3.37503C16.4785 3.72892 17.0347 4.23448 17.4382 4.8917C17.8527 5.54892 18.0599 6.30725 18.0599 7.1667C18.0599 8.02614 17.8472 8.78448 17.4219 9.4417C17.0074 10.0989 16.4403 10.6095 15.7205 10.9735C15.0116 11.3274 14.2154 11.5044 13.332 11.5044ZM13.332 9.65403C13.7464 9.65403 14.1336 9.56303 14.4935 9.38103C14.8643 9.18892 15.1588 8.90581 15.3769 8.5317C15.5951 8.15759 15.7041 7.70259 15.7041 7.1667C15.7041 6.36792 15.4751 5.7562 15.017 5.33153C14.5699 4.89675 14.0191 4.67937 13.3647 4.67937C12.7103 4.67937 12.1595 4.89675 11.7124 5.33153C11.2761 5.7562 11.058 6.36792 11.058 7.1667C11.058 7.96548 11.2707 8.58226 11.696 9.01703C12.1323 9.4417 12.6776 9.65403 13.332 9.65403Z" fill="black"/>
<path d="M21.3759 0.144531V11.3679H19.0856V0.144531H21.3759Z" fill="black"/>
<path d="M31.6549 2.96553L26.0436 15.3415H23.606L25.5692 11.1555L21.9374 2.96553H24.5058L26.8452 8.83503L29.2174 2.96553H31.6549Z" fill="black"/>
<path d="M43.4906 2.8442C44.603 2.8442 45.4973 3.1627 46.1735 3.7997C46.8606 4.42659 47.2042 5.30625 47.2042 6.4387V11.3679H44.9138V6.72687C44.9138 6.06964 44.7339 5.56914 44.374 5.22536C44.0141 4.87148 43.5233 4.69453 42.9016 4.69453C42.28 4.69453 41.7837 4.87148 41.4129 5.22536C41.053 5.56914 40.873 6.06964 40.873 6.72687V11.3679H38.5827V6.72687C38.5827 6.06964 38.4027 5.56914 38.0428 5.22536C37.6829 4.87148 37.1921 4.69453 36.5705 4.69453C35.9379 4.69453 35.4362 4.87148 35.0654 5.22536C34.7055 5.56914 34.5255 6.06964 34.5255 6.72687V11.3679H32.2352V2.96553H34.5255V3.9817C34.82 3.62781 35.1963 3.34975 35.6543 3.14753C36.1233 2.94531 36.6359 2.8442 37.1921 2.8442C37.901 2.8442 38.5336 2.98575 39.0898 3.26886C39.6461 3.54186 40.0769 3.9362 40.3822 4.45187C40.6767 3.96653 41.1021 3.57725 41.6583 3.28403C42.2254 2.99081 42.8362 2.8442 43.4906 2.8442Z" fill="black"/>
<path d="M48.1342 7.13637C48.1342 6.28703 48.3142 5.53375 48.6741 4.87653C49.0449 4.21931 49.5412 3.71375 50.1628 3.35986C50.7954 3.00598 51.4989 2.82903 52.2732 2.82903C52.9494 2.82903 53.5383 2.95542 54.04 3.2082C54.5526 3.46098 54.9616 3.77948 55.267 4.1637V2.96553H57.5737V11.3679H55.267V10.1394C54.9725 10.5337 54.5635 10.8623 54.04 11.1252C53.5274 11.378 52.933 11.5044 52.2569 11.5044C51.4934 11.5044 50.7954 11.3224 50.1628 10.9584C49.5412 10.5944 49.0449 10.0838 48.6741 9.42653C48.3142 8.7592 48.1342 7.99581 48.1342 7.13637ZM55.267 7.1667C55.267 6.65103 55.1579 6.2112 54.9398 5.8472C54.7217 5.47309 54.4272 5.18998 54.0564 4.99787C53.6856 4.79564 53.2875 4.69453 52.8622 4.69453C52.4368 4.69453 52.0442 4.79059 51.6843 4.9827C51.3244 5.17481 51.0299 5.45792 50.8009 5.83203C50.5827 6.19603 50.4737 6.63081 50.4737 7.13637C50.4737 7.64192 50.5827 8.08681 50.8009 8.47103C51.0299 8.84514 51.3244 9.13331 51.6843 9.33553C52.0551 9.53775 52.4477 9.63887 52.8622 9.63887C53.2875 9.63887 53.6856 9.54281 54.0564 9.3507C54.4272 9.14848 54.7217 8.86537 54.9398 8.50137C55.1579 8.12725 55.267 7.68237 55.267 7.1667Z" fill="black"/>
<path d="M61.8228 4.7097V8.77437C61.8228 9.05748 61.8937 9.26476 62.0355 9.3962C62.1882 9.51753 62.4391 9.5782 62.7881 9.5782H63.8514V11.3679H62.4118C60.4814 11.3679 59.5161 10.4983 59.5161 8.7592V4.7097H58.4364V2.96553H59.5161V0.887697H61.8228V2.96553H63.8514V4.7097H61.8228Z" fill="black"/>
<path d="M69.9486 2.8442C70.6357 2.8442 71.2464 2.98575 71.7808 3.26886C72.3152 3.54186 72.7297 3.95136 73.0242 4.49737C73.3295 5.03325 73.4822 5.68037 73.4822 6.4387V11.3679H71.1919V6.72687C71.1919 6.05953 71.0119 5.54892 70.652 5.19503C70.2921 4.83103 69.8013 4.64903 69.1797 4.64903C68.5471 4.64903 68.0454 4.83103 67.6746 5.19503C67.3147 5.54892 67.1347 6.05953 67.1347 6.72687V11.3679H64.8444V0.144531H67.1347V4.01203C67.4292 3.64803 67.8218 3.36492 68.3126 3.1627C68.8034 2.95036 69.3487 2.8442 69.9486 2.8442Z" fill="black"/>
</g>
</svg>
