<svg width="20" height="20" viewBox="0 0 20 20" fill="none" xmlns="http://www.w3.org/2000/svg">
<g id="message-chat-circle" clip-path="url(#clip0_221_12009)">
<path id="Icon" d="M5.07945 9.35668C5.02765 9.02287 5.00078 8.68089 5.00078 8.33268C5.00078 4.65078 8.00519 1.66602 11.7113 1.66602C15.4174 1.66602 18.4218 4.65078 18.4218 8.33268C18.4218 9.16441 18.2685 9.96056 17.9884 10.6948C17.9303 10.8473 17.9012 10.9235 17.888 10.983C17.8749 11.042 17.8699 11.0835 17.8684 11.1439C17.867 11.2048 17.8753 11.272 17.8918 11.4063L18.2273 14.1315C18.2636 14.4265 18.2817 14.574 18.2327 14.6812C18.1897 14.7752 18.1133 14.8498 18.0184 14.8906C17.9101 14.9372 17.763 14.9156 17.4689 14.8725L14.8145 14.4834C14.6759 14.4631 14.6066 14.453 14.5435 14.4533C14.4811 14.4537 14.4379 14.4583 14.3768 14.4711C14.315 14.4841 14.2361 14.5137 14.0783 14.5728C13.3422 14.8485 12.5445 14.9993 11.7113 14.9993C11.3628 14.9993 11.0205 14.973 10.6864 14.9221M6.36046 18.3327C8.83121 18.3327 10.8341 16.2807 10.8341 13.7493C10.8341 11.218 8.83121 9.16601 6.36046 9.16601C3.88972 9.16601 1.88678 11.218 1.88678 13.7493C1.88678 14.2582 1.96771 14.7476 2.1171 15.205C2.18026 15.3983 2.21183 15.4949 2.22219 15.561C2.23301 15.6299 2.23491 15.6686 2.23088 15.7383C2.22702 15.805 2.21033 15.8804 2.17693 16.0313L1.66748 18.3327L4.16315 17.9918C4.29937 17.9732 4.36748 17.9639 4.42695 17.9643C4.48958 17.9648 4.52282 17.9682 4.58424 17.9804C4.64257 17.992 4.72928 18.0226 4.90271 18.0838C5.35964 18.2451 5.85007 18.3327 6.36046 18.3327Z" stroke="black" stroke-opacity="0.5" stroke-width="1.66667" stroke-linecap="round" stroke-linejoin="round"/>
</g>
<defs>
<clipPath id="clip0_221_12009">
<rect width="20" height="20" fill="white"/>
</clipPath>
</defs>
</svg>
