<svg width="20" height="20" viewBox="0 0 20 20" fill="none" xmlns="http://www.w3.org/2000/svg">
<g id="stars-02">
<path id="Icon" d="M16.2526 18.3346V14.168M16.2526 5.83464V1.66797M18.3359 3.7513H14.1693M18.3359 16.2513H14.1693M9.16927 2.5013L10.6144 6.25869C10.8494 6.86971 10.9669 7.17522 11.1497 7.43221C11.3116 7.65997 11.5106 7.85896 11.7384 8.02091C11.9953 8.20364 12.3009 8.32114 12.9119 8.55615L16.6693 10.0013L12.9119 11.4464C12.3009 11.6815 11.9953 11.799 11.7384 11.9817C11.5106 12.1436 11.3116 12.3426 11.1497 12.5704C10.9669 12.8274 10.8494 13.1329 10.6144 13.7439L9.16927 17.5013L7.72412 13.7439C7.48911 13.1329 7.37161 12.8274 7.18888 12.5704C7.02693 12.3426 6.82793 12.1436 6.60018 11.9817C6.34319 11.799 6.03768 11.6815 5.42665 11.4464L1.66927 10.0013L5.42666 8.55615C6.03768 8.32114 6.34319 8.20364 6.60018 8.02091C6.82794 7.85896 7.02693 7.65997 7.18888 7.43221C7.37161 7.17522 7.48911 6.86971 7.72412 6.25869L9.16927 2.5013Z" stroke="white" stroke-width="1.25" stroke-linecap="round" stroke-linejoin="round"/>
</g>
</svg>
