<svg width="20" height="20" viewBox="0 0 20 20" fill="none" xmlns="http://www.w3.org/2000/svg">
<g id="target-04" clip-path="url(#clip0_194_396)">
<path id="Icon" d="M13.3334 6.66663V4.16663L15.8334 1.66663L16.6667 3.33329L18.3334 4.16663L15.8334 6.66663H13.3334ZM13.3334 6.66663L10.0001 9.99991M18.3334 9.99996C18.3334 14.6023 14.6025 18.3333 10.0001 18.3333C5.39771 18.3333 1.66675 14.6023 1.66675 9.99996C1.66675 5.39759 5.39771 1.66663 10.0001 1.66663M14.1667 9.99996C14.1667 12.3011 12.3013 14.1666 10.0001 14.1666C7.69889 14.1666 5.83341 12.3011 5.83341 9.99996C5.83341 7.69877 7.69889 5.83329 10.0001 5.83329" stroke="#0A0A0A" stroke-opacity="0.5" stroke-width="1.66667" stroke-linecap="round" stroke-linejoin="round"/>
</g>
<defs>
<clipPath id="clip0_194_396">
<rect width="20" height="20" fill="white"/>
</clipPath>
</defs>
</svg>
