<svg width="49" height="49" viewBox="0 0 49 49" fill="none" xmlns="http://www.w3.org/2000/svg">
<g id="Frame">
<path id="Vector" d="M38.3938 14.095C38.8462 13.503 39.0474 12.7566 38.9538 12.0173C38.8602 11.2781 38.4792 10.6054 37.8934 10.1448C37.3076 9.6843 36.5641 9.47291 35.8236 9.55641C35.0831 9.63991 34.4053 10.0116 33.9368 10.591L35.7358 8.30102C35.9708 8.0088 36.1455 7.67286 36.2498 7.31265C36.3541 6.95245 36.3859 6.57513 36.3433 6.20255C36.3007 5.82997 36.1847 5.46954 36.0019 5.14212C35.819 4.81471 35.5731 4.52681 35.2782 4.29512C34.9834 4.06342 34.6455 3.89253 34.2841 3.79233C33.9227 3.69214 33.5451 3.66463 33.173 3.7114C32.8009 3.75817 32.4418 3.8783 32.1165 4.06482C31.7912 4.25134 31.5061 4.50055 31.2778 4.79802L29.4798 7.08702C29.7159 6.79498 29.8917 6.45893 29.9968 6.09839C30.102 5.73785 30.1345 5.36001 30.0924 4.98681C30.0503 4.61361 29.9345 4.25249 29.7517 3.92442C29.5689 3.59636 29.3227 3.30789 29.0274 3.07577C28.7322 2.84366 28.3938 2.67252 28.0318 2.57229C27.6699 2.47207 27.2916 2.44476 26.919 2.49195C26.5464 2.53915 26.1869 2.6599 25.8614 2.8472C25.5359 3.0345 25.2508 3.28462 25.0228 3.58302L15.8868 15.065L15.8448 8.51502C15.8399 7.73218 15.5342 6.98117 14.9911 6.41737C14.448 5.85358 13.7089 5.52013 12.9268 5.48602C12.2004 5.45119 11.4859 5.68053 10.9155 6.13165C10.3451 6.58276 9.95727 7.22514 9.82377 7.94002C9.05977 12.077 7.03177 19.782 6.81677 24.845C6.66877 28.313 7.10277 33.442 11.2588 36.961C19.1068 43.609 26.5038 38.981 31.7328 32.053L40.6598 20.437C41.1238 19.8401 41.3316 19.0834 41.2377 18.3333C41.1437 17.5831 40.7556 16.901 40.1588 16.437C39.5619 15.973 38.8052 15.7651 38.055 15.8591C37.3049 15.953 36.6228 16.3411 36.1588 16.938L38.3938 14.095Z" fill="#FFB9AA"/>
<path id="Vector_2" d="M41.242 18.444C41.3074 19.1571 41.101 19.8686 40.664 20.436L31.736 32.053C26.507 38.98 19.11 43.608 11.262 36.961C8.90103 34.961 7.74203 32.441 7.20703 30.001L8.24403 36.668C8.81103 38.997 9.97003 41.373 12.218 43.277C20.066 49.925 27.463 45.297 32.692 38.369L41.62 26.752C41.8531 26.4492 42.0228 26.1027 42.119 25.7329C42.2152 25.3632 42.236 24.9779 42.18 24.6L41.242 18.444Z" fill="#EA563D"/>
<path id="Vector_3" d="M38.3938 14.095C38.8462 13.503 39.0474 12.7566 38.9538 12.0173C38.8602 11.2781 38.4792 10.6054 37.8934 10.1448C37.3076 9.6843 36.5641 9.47291 35.8236 9.55641C35.0831 9.63991 34.4053 10.0116 33.9368 10.591L35.7358 8.30102C35.9708 8.0088 36.1455 7.67286 36.2498 7.31265C36.3541 6.95245 36.3859 6.57513 36.3433 6.20255C36.3007 5.82997 36.1847 5.46954 36.0019 5.14212C35.819 4.81471 35.5731 4.52681 35.2782 4.29512C34.9834 4.06342 34.6455 3.89253 34.2841 3.79233C33.9227 3.69214 33.5451 3.66463 33.173 3.7114C32.8009 3.75817 32.4418 3.8783 32.1165 4.06482C31.7912 4.25134 31.5061 4.50055 31.2778 4.79802L29.4798 7.08702C29.7159 6.79498 29.8917 6.45893 29.9968 6.09839C30.102 5.73785 30.1345 5.36001 30.0924 4.98681C30.0503 4.61361 29.9345 4.25249 29.7517 3.92442C29.5689 3.59636 29.3227 3.30789 29.0274 3.07577C28.7322 2.84366 28.3938 2.67252 28.0318 2.57229C27.6699 2.47207 27.2916 2.44476 26.919 2.49195C26.5464 2.53915 26.1869 2.6599 25.8614 2.8472C25.5359 3.0345 25.2508 3.28462 25.0228 3.58302L15.8868 15.065L15.8448 8.51502C15.8399 7.73218 15.5342 6.98117 14.9911 6.41737C14.448 5.85358 13.7089 5.52013 12.9268 5.48602C12.2004 5.45119 11.4859 5.68053 10.9155 6.13165C10.3451 6.58276 9.95727 7.22514 9.82377 7.94002C9.05977 12.077 7.03177 19.782 6.81677 24.845C6.66877 28.313 7.10277 33.442 11.2588 36.961C19.1068 43.609 26.5038 38.981 31.7328 32.053L40.6598 20.437C41.1238 19.8401 41.3316 19.0834 41.2377 18.3333C41.1437 17.5831 40.7556 16.901 40.1588 16.437C39.5619 15.973 38.8052 15.7651 38.055 15.8591C37.3049 15.953 36.6228 16.3411 36.1588 16.938L38.3938 14.095Z" stroke="black" stroke-width="0.2" stroke-linecap="round" stroke-linejoin="round"/>
<path id="Vector_4" d="M41.242 18.444C41.3074 19.1571 41.101 19.8686 40.664 20.436L31.736 32.053C26.507 38.98 19.11 43.608 11.262 36.961C8.90103 34.961 7.74203 32.441 7.20703 30.001L8.24403 36.668C8.81103 38.997 9.97003 41.373 12.218 43.277C20.066 49.925 27.463 45.297 32.692 38.369L41.62 26.752C41.8531 26.4492 42.0228 26.1027 42.119 25.7329C42.2152 25.3632 42.236 24.9779 42.18 24.6L41.242 18.444Z" stroke="black" stroke-width="0.2" stroke-linecap="round" stroke-linejoin="round"/>
<path id="Vector_5" d="M29.4799 7.08704L21.5259 17.207" stroke="black" stroke-width="0.2" stroke-linecap="round" stroke-linejoin="round"/>
<path id="Vector_6" d="M27.0723 19.3251L33.9383 10.5911" stroke="black" stroke-width="0.2" stroke-linecap="round" stroke-linejoin="round"/>
<path id="Vector_7" d="M38.3949 14.094L30.4399 24.214" stroke="black" stroke-width="0.2" stroke-linecap="round" stroke-linejoin="round"/>
</g>
</svg>
