<svg width="49" height="49" viewBox="0 0 49 49" fill="none" xmlns="http://www.w3.org/2000/svg">
<g id="Frame">
<path id="Vector" fill-rule="evenodd" clip-rule="evenodd" d="M23.9179 2.99605L44.7869 16.8801L26.7819 37.3731L3.27686 21.7381C3.50987 20.9377 3.93407 20.206 4.51286 19.6061L20.1429 3.40605C20.6245 2.90691 21.266 2.5925 21.9556 2.51759C22.6452 2.44267 23.3392 2.61199 23.9169 2.99605H23.9179ZM35.6239 17.1281L23.4899 9.04706L18.8809 14.2611L31.0149 22.3421L35.6249 17.1281H35.6239Z" fill="#FFB9AA"/>
<path id="Vector_2" d="M44.7829 16.8791L23.913 2.99605C23.3353 2.61199 22.6413 2.44267 21.9517 2.51759C21.2621 2.5925 20.6206 2.90691 20.1389 3.40605L4.50895 19.6061C3.9303 20.2057 3.50612 20.937 3.27295 21.7371L26.7779 37.3731L44.7829 16.8801V16.8791Z" stroke="black" stroke-width="0.2" stroke-linejoin="round"/>
<path id="Vector_3" d="M44.7829 16.8791L23.913 2.99605C23.3353 2.61199 22.6413 2.44267 21.9517 2.51759C21.2621 2.5925 20.6206 2.90691 20.1389 3.40605L4.50895 19.6061C3.9303 20.2057 3.50612 20.937 3.27295 21.7371L26.7779 37.3731L44.7829 16.8801V16.8791Z" stroke="black" stroke-width="0.2" stroke-linejoin="round"/>
<path id="Vector_4" d="M23.486 9.047L35.621 17.128L31.011 22.343L18.877 14.261L23.487 9.047H23.486Z" fill="#94E986"/>
<path id="Vector_5" d="M23.486 9.047L35.621 17.128L31.011 22.343L18.877 14.261L23.487 9.047H23.486Z" stroke="black" stroke-width="0.2" stroke-linejoin="round"/>
<path id="Vector_6" d="M3.27806 21.74L26.7801 37.387L27.8871 46.499L5.76005 31.76C5.1771 31.3723 4.6831 30.8653 4.31073 30.2725C3.93837 29.6796 3.69614 29.0145 3.60006 28.321L3.13006 23.795C3.03467 23.1071 3.08544 22.4069 3.27906 21.74H3.27806Z" fill="#E38414"/>
<path id="Vector_7" d="M3.27806 21.74L26.7801 37.387L27.8871 46.499L5.76005 31.76C5.1771 31.3723 4.6831 30.8653 4.31073 30.2725C3.93837 29.6796 3.69614 29.0145 3.60006 28.321L3.13006 23.795C3.03467 23.1071 3.08544 22.4069 3.27906 21.74H3.27806Z" stroke="black" stroke-width="0.2" stroke-linejoin="round"/>
<path id="Vector_8" d="M44.782 16.8781L45.917 26.0181L27.886 46.5L26.762 37.3761L44.782 16.8781Z" fill="#FFCE51"/>
<path id="Vector_9" d="M44.782 16.8781L45.917 26.0181L27.886 46.5001L26.762 37.3761L44.782 16.8781Z" stroke="black" stroke-width="0.2" stroke-linejoin="round"/>
</g>
</svg>
