<svg width="49" height="49" viewBox="0 0 49 49" fill="none" xmlns="http://www.w3.org/2000/svg">
<g id="Frame">
<path id="Vector" d="M2.5 23.537C2.5 28.3942 4.4295 33.0524 7.86405 36.487C11.2986 39.9215 15.9568 41.851 20.814 41.851C25.6712 41.851 30.3294 39.9215 33.764 36.487C37.1985 33.0524 39.128 28.3942 39.128 23.537C39.128 18.6798 37.1985 14.0216 33.764 10.5871C30.3294 7.15253 25.6712 5.22302 20.814 5.22302C15.9568 5.22302 11.2986 7.15253 7.86405 10.5871C4.4295 14.0216 2.5 18.6798 2.5 23.537Z" fill="#94E986"/>
<path id="Vector_2" d="M46.5011 25.463C46.5011 35.577 38.301 43.777 28.187 43.777L17.998 41.637C18.916 41.778 19.857 41.852 20.814 41.852C30.929 41.852 39.128 33.652 39.128 23.537C39.128 15.157 33.5 8.09198 25.818 5.91498L33.442 7.91398C40.995 10.173 46.5011 17.174 46.5011 25.463Z" fill="#FFB9EC"/>
<path id="Vector_3" d="M2.5 23.537C2.5 28.3942 4.42951 33.0524 7.86405 36.487C11.2986 39.9215 15.9568 41.851 20.814 41.851C25.6712 41.851 30.3294 39.9215 33.764 36.487C37.1985 33.0524 39.128 28.3942 39.128 23.537C39.128 18.6798 37.1985 14.0216 33.764 10.5871C30.3294 7.15253 25.6712 5.22302 20.814 5.22302C15.9568 5.22302 11.2986 7.15253 7.86405 10.5871C4.42951 14.0216 2.5 18.6798 2.5 23.537Z" stroke="black" stroke-width="0.923077"/>
<path id="Vector_4" d="M46.5011 25.463C46.5011 35.577 38.301 43.777 28.187 43.777L17.998 41.637C18.916 41.778 19.857 41.852 20.814 41.852C30.929 41.852 39.128 33.652 39.128 23.537C39.128 15.157 33.5 8.09198 25.818 5.91498L33.442 7.91398C40.995 10.173 46.5011 17.174 46.5011 25.463Z" stroke="black" stroke-width="0.923077"/>
<path id="Vector_5" d="M10.541 23.631C10.541 28.4882 11.6232 33.1464 13.5496 36.581C15.476 40.0155 18.0887 41.945 20.813 41.945C23.5373 41.945 26.15 40.0155 28.0764 36.581C30.0028 33.1464 31.085 28.4882 31.085 23.631C31.085 18.7738 30.0028 14.1156 28.0764 10.6811C26.15 7.24652 23.5373 5.31702 20.813 5.31702C18.0887 5.31702 15.476 7.24652 13.5496 10.6811C11.6232 14.1156 10.541 18.7738 10.541 23.631Z" stroke="black" stroke-width="0.923077"/>
<path id="Vector_6" d="M20.814 5.31702V41.757" stroke="black" stroke-width="0.923077" stroke-linejoin="round"/>
<path id="Vector_7" d="M39.0328 23.537H2.59277" stroke="black" stroke-width="0.923077" stroke-linejoin="round"/>
<path id="Vector_8" d="M36.5922 14.098H5.03516" stroke="black" stroke-width="0.923077" stroke-linejoin="round"/>
<path id="Vector_9" d="M36.5922 32.834H5.03516" stroke="black" stroke-width="0.923077" stroke-linejoin="round"/>
</g>
</svg>
