<svg width="49" height="49" viewBox="0 0 49 49" fill="none" xmlns="http://www.w3.org/2000/svg">
<g id="Frame">
<path id="Vector" d="M27.0249 36.696C34.1709 34.5 39.3649 27.848 39.3649 19.982C39.3649 10.327 31.5379 2.5 21.8829 2.5C12.2279 2.5 4.3999 10.327 4.3999 19.982C4.3999 27.848 9.5949 34.5 16.7399 36.696L21.8829 43.885L27.0249 36.696Z" fill="#FFCE51"/>
<path id="Vector_2" d="M32.2599 39.311C39.4059 37.115 44.5999 30.463 44.5999 22.598C44.5999 16.473 41.4499 11.084 36.6829 7.96197L29.9549 4.46997C35.5469 7.38597 39.3649 13.238 39.3649 19.98C39.3649 27.846 34.1709 34.499 27.0249 36.695L32.2599 39.31V39.311Z" fill="#EA563D"/>
<path id="Vector_3" d="M21.8848 43.884L27.1198 46.499L32.2618 39.311L27.0268 36.695L21.8848 43.884Z" fill="#EA563D"/>
<path id="Vector_4" d="M27.0249 36.696C34.1709 34.5 39.3649 27.848 39.3649 19.982C39.3649 10.327 31.5379 2.5 21.8829 2.5C12.2279 2.5 4.3999 10.327 4.3999 19.982C4.3999 27.848 9.5949 34.5 16.7399 36.696L21.8829 43.885L27.0249 36.696Z" stroke="black" stroke-width="0.923077" stroke-linecap="round" stroke-linejoin="round"/>
<path id="Vector_5" d="M32.2599 39.311C39.4059 37.115 44.5999 30.463 44.5999 22.598C44.5999 16.473 41.4499 11.084 36.6829 7.96197L29.9549 4.46997C35.5469 7.38597 39.3649 13.238 39.3649 19.98C39.3649 27.846 34.1709 34.499 27.0249 36.695L32.2599 39.31V39.311Z" stroke="black" stroke-width="0.923077" stroke-linecap="round" stroke-linejoin="round"/>
<path id="Vector_6" d="M21.8848 43.884L27.1198 46.499L32.2618 39.311L27.0268 36.695L21.8848 43.884Z" stroke="black" stroke-width="0.923077" stroke-linecap="round" stroke-linejoin="round"/>
</g>
</svg>
