<svg width="49" height="49" viewBox="0 0 49 49" fill="none" xmlns="http://www.w3.org/2000/svg">
<g id="pie-chart-30 1">
<path id="Vector" d="M44.6098 15.685C42.7068 13.261 39.4838 11.245 35.4098 9.92997C31.3368 8.61497 26.6268 8.06997 21.9668 8.37597C17.3068 8.68097 12.9418 9.81997 9.50882 11.626C6.07582 13.434 3.75382 15.813 2.88282 18.418C2.01182 21.024 2.63582 23.718 4.66582 26.108C6.69582 28.498 10.0248 30.46 14.1658 31.705C18.3068 32.951 23.0438 33.415 27.6858 33.032C32.3268 32.648 36.6298 31.435 39.9658 29.572L24.4998 20.727L44.6098 15.684V15.685Z" fill="#FFCE51"/>
<path id="Vector_2" d="M44.61 15.6851L24.5 20.7291L33.674 25.9751L44.61 23.2331V15.6871V15.6851Z" fill="#94E986"/>
<path id="Vector_3" d="M39.966 29.5691C36.63 31.4331 32.327 32.6451 27.686 33.0291C23.044 33.4131 18.307 32.9491 14.166 31.7031C10.025 30.4581 6.69595 28.4971 4.66595 26.1061C3.27395 24.4661 2.54195 22.6821 2.50195 20.8831L2.56295 29.2131C2.76895 30.7441 3.47595 32.2501 4.66695 33.6531C6.69695 36.0431 10.025 38.0031 14.167 39.2491C18.307 40.4941 23.044 40.9591 27.686 40.5751C32.327 40.1911 36.63 38.9791 39.966 37.1151V29.5691Z" fill="#FFB9EC"/>
<path id="Vector_4" d="M44.6098 15.685C42.7068 13.261 39.4838 11.245 35.4098 9.92997C31.3368 8.61497 26.6268 8.06997 21.9668 8.37597C17.3068 8.68097 12.9418 9.81997 9.50882 11.626C6.07582 13.434 3.75382 15.813 2.88282 18.418C2.01182 21.024 2.63582 23.718 4.66582 26.108C6.69582 28.498 10.0248 30.46 14.1658 31.705C18.3068 32.951 23.0438 33.415 27.6858 33.032C32.3268 32.648 36.6298 31.435 39.9658 29.572L24.4998 20.727L44.6098 15.684V15.685Z" stroke="black" stroke-width="0.2" stroke-linejoin="round"/>
<path id="Vector_5" d="M44.6098 15.685C42.7068 13.261 39.4838 11.245 35.4098 9.92997C31.3368 8.61497 26.6268 8.06997 21.9668 8.37597C17.3068 8.68097 12.9418 9.81997 9.50882 11.626C6.07582 13.434 3.75382 15.813 2.88282 18.418C2.01182 21.024 2.63582 23.718 4.66582 26.108C6.69582 28.498 10.0248 30.46 14.1658 31.705C18.3068 32.951 23.0438 33.415 27.6858 33.032C32.3268 32.648 36.6298 31.435 39.9658 29.572L24.4998 20.727L44.6098 15.684V15.685Z" stroke="black" stroke-width="0.2" stroke-linejoin="round"/>
<path id="Vector_6" d="M44.61 15.6851L24.5 20.7291L33.674 25.9751L44.61 23.2331V15.6871V15.6851Z" stroke="black" stroke-width="0.2" stroke-linejoin="round"/>
<path id="Vector_7" d="M39.966 29.5691C36.63 31.4331 32.327 32.6451 27.686 33.0291C23.044 33.4131 18.307 32.9491 14.166 31.7031C10.025 30.4581 6.69595 28.4971 4.66595 26.1061C3.27395 24.4661 2.54195 22.6821 2.50195 20.8831L2.56295 29.2131C2.76895 30.7441 3.47595 32.2501 4.66695 33.6531C6.69695 36.0431 10.025 38.0031 14.167 39.2491C18.307 40.4941 23.044 40.9591 27.686 40.5751C32.327 40.1911 36.63 38.9791 39.966 37.1151V29.5691Z" stroke="black" stroke-width="0.2" stroke-linejoin="round"/>
</g>
</svg>
