<svg width="49" height="49" viewBox="0 0 49 49" fill="none" xmlns="http://www.w3.org/2000/svg">
<g id="sparkling-glitter-wink-34 1">
<path id="Vector" d="M8.378 27.757C7.555 27.174 7.105 26.542 7.105 25.881C7.105 23.441 13.258 21.386 21.625 20.775L17.043 17.998C8.667 18.602 2.5 20.66 2.5 23.106C2.5 23.793 2.987 24.45 3.874 25.053L8.378 27.757Z" fill="#89DCFF"/>
<path id="Vector_2" d="M22.138 3.41998C19.698 3.41998 17.646 9.60198 17.043 17.998L21.625 20.775L21.692 20.77C22.297 12.369 24.356 6.18298 26.803 6.18298C26.901 6.18298 26.999 6.19298 27.096 6.21298L22.678 3.52198C22.5057 3.4553 22.3227 3.42073 22.138 3.41998Z" fill="#89DCFF"/>
<path id="Vector_3" d="M17.176 30.496C18.6757 30.7193 20.1835 30.8844 21.696 30.991C22.183 37.763 23.616 43.096 25.435 44.91L21.73 42.727C19.546 40.986 17.933 37.007 17.176 30.497V30.496Z" fill="#EA563D"/>
<path id="Vector_4" d="M21.6891 30.993C13.2881 30.388 7.10205 28.329 7.10205 25.882C7.10205 23.435 13.2881 21.376 21.6891 20.771C22.2941 12.37 24.3531 6.18402 26.7991 6.18402C29.2471 6.18402 31.3061 12.37 31.9111 20.771C40.312 21.376 46.4981 23.435 46.4981 25.881C46.4981 28.329 40.312 30.388 31.9111 30.993C31.3061 39.394 29.2471 45.58 26.8001 45.58C24.3531 45.58 22.2941 39.394 21.6891 30.993Z" fill="#FFCE51"/>
<path id="Vector_5" d="M21.6891 30.993C13.2881 30.388 7.10205 28.329 7.10205 25.882C7.10205 23.435 13.2881 21.376 21.6891 20.771C22.2941 12.37 24.3531 6.18402 26.7991 6.18402C29.2471 6.18402 31.3061 12.37 31.9111 20.771C40.3121 21.376 46.4981 23.435 46.4981 25.881C46.4981 28.329 40.3121 30.388 31.9111 30.993C31.3061 39.394 29.2471 45.58 26.8001 45.58C24.3531 45.58 22.2941 39.394 21.6891 30.993Z" stroke="black" stroke-width="0.2" stroke-linejoin="round"/>
<path id="Vector_6" d="M17.176 30.496C18.6757 30.7193 20.1835 30.8844 21.696 30.991C22.183 37.763 23.616 43.096 25.435 44.91L21.73 42.727C19.546 40.986 17.933 37.007 17.176 30.497V30.496Z" stroke="black" stroke-width="0.2" stroke-linejoin="round"/>
<path id="Vector_7" d="M8.378 27.757C7.555 27.174 7.105 26.542 7.105 25.881C7.105 23.441 13.258 21.386 21.625 20.775L17.043 17.998C8.667 18.602 2.5 20.66 2.5 23.106C2.5 23.793 2.987 24.45 3.874 25.053L8.378 27.757Z" stroke="black" stroke-width="0.2" stroke-linejoin="round"/>
<path id="Vector_8" d="M22.138 3.41998C19.698 3.41998 17.646 9.60198 17.043 17.998L21.625 20.775L21.692 20.77C22.297 12.369 24.356 6.18298 26.803 6.18298C26.901 6.18298 26.999 6.19298 27.096 6.21298L22.678 3.52198C22.5057 3.4553 22.3227 3.42073 22.138 3.41998Z" stroke="black" stroke-width="0.2" stroke-linejoin="round"/>
</g>
</svg>
