<svg width="104" height="104" viewBox="0 0 104 104" fill="none" xmlns="http://www.w3.org/2000/svg">
<g id="Frame">
<path id="Vector" d="M44.3778 9.50293C32.1773 9.50293 24.581 22.7478 30.7452 33.2778L34.4675 39.6369L28.1083 35.9146C17.5783 29.7483 4.3335 37.3446 4.3335 49.5473C4.3335 61.7478 17.5783 69.3419 28.1083 63.1799L34.4675 59.4576L30.7452 65.8146C24.581 76.3446 32.1752 89.5916 44.3778 89.5916C56.5783 89.5916 64.1747 76.3468 58.0105 65.8146L54.2882 59.4576L60.6473 63.1799C71.1773 69.3419 84.4222 61.7499 84.4222 49.5473C84.4222 37.3446 71.1773 29.7504 60.6473 35.9146L54.2882 39.6369L58.0105 33.2778C64.1747 22.7478 56.5805 9.50293 44.3778 9.50293Z" fill="#FFB9EC"/>
<path id="Vector_2" d="M44.3778 9.50293C32.1773 9.50293 24.581 22.7478 30.7452 33.2778L34.4675 39.6369L28.1083 35.9146C17.5783 29.7483 4.3335 37.3446 4.3335 49.5473C4.3335 61.7478 17.5783 69.3419 28.1083 63.1799L34.4675 59.4576L30.7452 65.8146C24.581 76.3446 32.1752 89.5916 44.3778 89.5916C56.5783 89.5916 64.1747 76.3468 58.0105 65.8146L54.2882 59.4576L60.6473 63.1799C71.1773 69.3419 84.4222 61.7499 84.4222 49.5473C84.4222 37.3446 71.1773 29.7504 60.6473 35.9146L54.2882 39.6369L58.0105 33.2778C64.1747 22.7478 56.5805 9.50293 44.3778 9.50293Z" stroke="black" stroke-width="2" stroke-linejoin="round"/>
<path id="Vector_3" d="M70.0784 65.2947C66.7898 65.6052 63.4875 64.864 60.6469 63.1779L54.2899 59.4556L58.0101 65.8147C64.1743 76.3447 56.5801 89.5896 44.3774 89.5896L54.8424 93.7756C56.3898 94.2572 58.0015 94.5005 59.6221 94.4971C71.8248 94.4971 79.4189 81.2522 73.2548 70.7201L70.0784 65.2947Z" fill="#FFCE51"/>
<path id="Vector_4" d="M76.6046 35.9126C81.1676 38.5841 84.4219 43.4981 84.4219 49.5453C84.4219 57.8891 78.2253 64.0793 70.9409 65.1886L75.8896 68.0833C86.4196 74.2474 99.6644 66.6533 99.6644 54.4528C99.6644 46.8261 94.4904 40.9978 88.0381 39.2059L76.6046 35.9126Z" fill="#FFCE51"/>
<path id="Vector_5" d="M50.5269 10.7251C58.8902 14.2351 63.0545 24.6654 58.0127 33.2801L54.2904 39.6371L60.6474 35.9148C62.751 34.6652 65.119 33.9279 67.5602 33.7623C70.0013 33.5967 72.4472 34.0075 74.7004 34.9614C77.2787 26.9448 72.9172 18.3171 65.2515 15.4224L50.5832 10.7468C50.5644 10.7395 50.5456 10.7323 50.5269 10.7251Z" fill="#FFCE51"/>
<path id="Vector_6" d="M70.0784 65.2947C66.7898 65.6052 63.4875 64.864 60.6469 63.1779L54.2899 59.4556L58.0101 65.8147C64.1743 76.3447 56.5801 89.5896 44.3774 89.5896L54.8424 93.7756C56.3898 94.2572 58.0015 94.5005 59.6221 94.4971C71.8248 94.4971 79.4189 81.2522 73.2548 70.7201L70.0784 65.2947Z" stroke="black" stroke-width="2" stroke-linejoin="round"/>
<path id="Vector_7" d="M76.6046 35.9126C81.1676 38.5841 84.4219 43.4981 84.4219 49.5453C84.4219 57.8891 78.2253 64.0793 70.9409 65.1886L75.8896 68.0833C86.4196 74.2474 99.6644 66.6533 99.6644 54.4528C99.6644 46.8261 94.4904 40.9978 88.0381 39.2059L76.6046 35.9126Z" stroke="black" stroke-width="2" stroke-linejoin="round"/>
<path id="Vector_8" d="M50.5269 10.7251C58.8902 14.2351 63.0545 24.6654 58.0127 33.2801L54.2904 39.6371L60.6474 35.9148C62.751 34.6652 65.119 33.9279 67.5602 33.7623C70.0013 33.5967 72.4472 34.0074 74.7004 34.9614C77.2787 26.9448 72.9172 18.3171 65.2515 15.4224L50.5832 10.7468C50.5644 10.7395 50.5456 10.7323 50.5269 10.7251Z" stroke="black" stroke-width="2" stroke-linejoin="round"/>
</g>
</svg>
