<svg width="104" height="104" viewBox="0 0 104 104" fill="none" xmlns="http://www.w3.org/2000/svg">
<g id="Frame">
<path id="Vector" d="M31.5685 29.2998H4.3335V83.7741H86.045V56.5391H31.5707V29.2976L31.5685 29.2998Z" fill="#89DCFF"/>
<path id="Vector_2" d="M45.1903 20.2236H17.9532L4.3335 29.302H31.5685L45.1903 20.2236Z" fill="#FFCE51"/>
<path id="Vector_3" d="M31.5771 56.5393H86.0515L99.6711 47.4609H45.1968L31.5771 56.5393Z" fill="#FFCE51"/>
<path id="Vector_4" d="M31.5771 29.302V56.5391L45.1968 47.4608V20.2236L31.5771 29.302Z" fill="#EA563D"/>
<path id="Vector_5" d="M86.0493 56.5391V83.7741L99.6668 74.6979V47.4629L86.0493 56.5412V56.5391Z" fill="#EA563D"/>
<path id="Vector_6" d="M31.5685 29.2998H4.3335V83.7741H86.045V56.5391H31.5707V29.2976L31.5685 29.2998Z" stroke="black" stroke-width="2" stroke-linejoin="round"/>
<path id="Vector_7" d="M45.1903 20.2236H17.9532L4.3335 29.302H31.5685L45.1903 20.2236Z" stroke="black" stroke-width="2" stroke-linejoin="round"/>
<path id="Vector_8" d="M31.5771 56.5393H86.0515L99.6711 47.4609H45.1968L31.5771 56.5393Z" stroke="black" stroke-width="2" stroke-linejoin="round"/>
<path id="Vector_9" d="M31.5771 29.302V56.5391L45.1968 47.4608V20.2236L31.5771 29.302Z" stroke="black" stroke-width="2" stroke-linejoin="round"/>
<path id="Vector_10" d="M86.0493 56.5391V83.7741L99.6668 74.6979V47.4629L86.0493 56.5412V56.5391Z" stroke="black" stroke-width="2" stroke-linejoin="round"/>
</g>
</svg>
