<svg width="94" height="104" viewBox="0 0 94 104" fill="none" xmlns="http://www.w3.org/2000/svg">
<g id="Frame">
<path id="Vector" d="M49.2701 10.1248L62.1834 4.33325C61.6981 10.8766 65.1691 20.7999 68.2674 27.5599C67.9533 31.4513 61.1781 41.0431 59.6831 40.7224C58.1794 40.4018 48.4771 20.7826 49.2679 10.1248H49.2701Z" fill="#2685F5"/>
<path id="Vector_2" d="M35.3212 24.3533C34.9515 23.4865 34.6161 22.6054 34.3159 21.7122L21.4004 27.5037C22.5921 31.1697 27.3544 41.5047 31.0226 43.2987C30.8817 38.5862 31.6119 31.382 35.3212 24.3512V24.3533Z" fill="#2685F5"/>
<path id="Vector_3" d="M78.0779 90.7573L68.3885 95.108C85.2192 86.5497 88.142 67.2598 82.2335 48.6612C78.6325 37.3208 71.5562 29.9455 68.2759 27.5037L81.1914 21.7122C84.4717 24.154 91.548 31.5315 95.1512 42.8718C101.417 62.6015 97.7469 83.1112 78.0779 90.7573Z" fill="#2685F5"/>
<path id="Vector_4" d="M68.2694 27.5599C65.171 20.7999 61.7 10.8766 62.1854 4.33325L49.2699 10.1248C48.479 20.7848 58.1814 40.4018 59.685 40.7224C61.1865 41.0453 68.018 31.3624 68.2737 27.5058" stroke="black" stroke-width="2" stroke-linejoin="round"/>
<path id="Vector_5" d="M35.3212 24.3533C34.9515 23.4865 34.6161 22.6054 34.3159 21.7122L21.4004 27.5037C22.5921 31.1697 27.3544 41.5047 31.0226 43.2987C30.8817 38.5862 31.6119 31.382 35.3212 24.3512V24.3533Z" stroke="black" stroke-width="2" stroke-linejoin="round"/>
<path id="Vector_6" d="M78.0779 90.7573L68.3885 95.108C85.2192 86.5497 88.142 67.2598 82.2335 48.6612C78.6325 37.3208 71.5562 29.9455 68.2759 27.5037L81.1914 21.7122C84.4717 24.154 91.548 31.5315 95.1512 42.8718C101.417 62.6015 97.7469 83.1112 78.0779 90.7573Z" stroke="black" stroke-width="2" stroke-linejoin="round"/>
<path id="Vector_7" d="M46.3731 99.6666C10.5082 99.6666 4.28558 69.1751 6.43274 53.9283C8.04474 42.4731 13.5697 33.8736 21.3957 27.5058C22.5874 31.1718 27.3497 41.5068 31.0179 43.3008C30.7731 35.1064 33.1629 19.3851 49.2721 10.1248C48.4791 20.7848 58.1814 40.4018 59.6851 40.7246C61.1887 41.0453 68.0181 31.3646 68.2759 27.5079C71.5562 29.9476 78.6326 37.3229 82.2357 48.6633C90.1376 73.5474 82.2357 99.6666 46.3731 99.6666Z" fill="#FFCE51"/>
<path id="Vector_8" d="M46.3731 99.6666C10.5082 99.6666 4.28558 69.1751 6.43274 53.9283C8.04474 42.4731 13.5697 33.8736 21.3957 27.5058C22.5874 31.1718 27.3497 41.5068 31.0179 43.3008C30.7731 35.1064 33.1629 19.3851 49.2721 10.1248C48.4791 20.7848 58.1814 40.4018 59.6851 40.7246C61.1887 41.0453 68.0181 31.3646 68.2759 27.5079C71.5562 29.9476 78.6326 37.3229 82.2357 48.6633C90.1376 73.5474 82.2357 99.6666 46.3731 99.6666Z" stroke="black" stroke-width="2" stroke-linejoin="round"/>
</g>
</svg>
