<svg width="105" height="104" viewBox="0 0 105 104" fill="none" xmlns="http://www.w3.org/2000/svg">
<g id="Frame">
<path id="Vector" fill-rule="evenodd" clip-rule="evenodd" d="M49.4189 23.9416L58.2697 12.1982L67.1249 23.9416L80.9222 18.8456L82.0185 33.5139L96.3835 36.6881L89.37 49.6166L99.7375 60.0512L86.8502 67.1427L89.9312 81.5251L75.2564 80.5219L70.0715 94.2868L58.2675 85.5117L46.4657 94.2868L41.2809 80.5219L26.606 81.5251L29.687 67.1427L16.7997 60.0512L27.1672 49.6166L20.1581 36.6859L34.523 33.5117L35.6172 18.8434L49.4167 23.9394L49.4189 23.9416ZM58.274 74.7781C52.7877 74.7781 47.5261 72.5986 43.6467 68.7192C39.7672 64.8398 37.5878 59.5782 37.5878 54.0918C37.5878 48.6055 39.7672 43.3439 43.6467 39.4644C47.5261 35.585 52.7877 33.4056 58.274 33.4056C63.7237 33.4613 68.9312 35.6653 72.7652 39.5387C76.5991 43.4121 78.7497 48.6419 78.7497 54.0918C78.7497 59.5418 76.5991 64.7716 72.7652 68.6449C68.9312 72.5183 63.7237 74.7223 58.274 74.7781Z" fill="#FFCE51"/>
<path id="Vector_2" d="M34.5274 33.5074L35.6064 19.0666L35.6238 18.8499L23.6529 14.6531L22.5566 29.3214L34.5274 33.5096V33.5074Z" fill="#EA563D"/>
<path id="Vector_3" d="M16.8041 60.0469L27.1716 49.6122L15.2007 45.4241L4.83324 55.8566L17.7206 62.9459L29.6914 67.1362L16.8041 60.0447V60.0469Z" fill="#EA563D"/>
<path id="Vector_4" d="M46.3033 8.01025L37.5868 19.5759L49.419 23.9461L58.272 12.2006L46.3011 8.01025H46.3033Z" fill="#EA563D"/>
<path id="Vector_5" d="M68.9515 14.6597L62.0463 17.2077L67.1228 23.946L80.9202 18.8478L68.9515 14.6597Z" fill="#EA563D"/>
<path id="Vector_6" d="M31.1497 81.2282L41.281 80.5349L46.4658 94.2997L34.495 90.1094L31.1497 81.2261V81.2282Z" fill="#EA563D"/>
<path id="Vector_7" d="M20.1604 36.6839L34.5254 33.5119L22.5524 29.3215L8.19172 32.4957L15.1987 45.4264L27.1696 49.6167L20.1604 36.6839Z" fill="#EA563D"/>
<path id="Vector_8" d="M26.6082 81.5187L29.6914 67.1364L17.7206 62.9482L14.6396 77.3306L26.6104 81.5187H26.6082Z" fill="#EA563D"/>
<path id="Vector_9" d="M58.2719 12.1982L49.4189 23.9459L35.6216 18.8499L34.5252 33.5182L20.1602 36.6924L27.1694 49.6231L16.8019 60.0577L29.6892 67.1492L26.6082 81.5316L41.2831 80.5284L46.4679 94.2932L58.2719 85.5182L70.0737 94.2932L75.2586 80.5284L89.9334 81.5316L86.8524 67.1492L99.7397 60.0577L89.3722 49.6231L96.3814 36.6924L82.0164 33.5182L80.9222 18.8499L67.1249 23.9459L58.2719 12.2004V12.1982Z" stroke="black" stroke-width="2" stroke-linejoin="round"/>
<path id="Vector_10" d="M34.5274 33.5074L35.6064 19.0666L35.6238 18.8499L23.6529 14.6531L22.5566 29.3214L34.5274 33.5096V33.5074Z" stroke="black" stroke-width="2" stroke-linejoin="round"/>
<path id="Vector_11" d="M16.8041 60.0469L27.1716 49.6122L15.2007 45.4241L4.83324 55.8566L17.7206 62.9459L29.6914 67.1362L16.8041 60.0447V60.0469Z" stroke="black" stroke-width="2" stroke-linejoin="round"/>
<path id="Vector_12" d="M46.3033 8.01025L37.5868 19.5759L49.419 23.9461L58.272 12.2006L46.3011 8.01025H46.3033Z" stroke="black" stroke-width="2" stroke-linejoin="round"/>
<path id="Vector_13" d="M68.9515 14.6597L62.0463 17.2077L67.1228 23.946L80.9202 18.8478L68.9515 14.6597Z" stroke="black" stroke-width="2" stroke-linejoin="round"/>
<path id="Vector_14" d="M31.1497 81.2282L41.281 80.5349L46.4658 94.2997L34.495 90.1094L31.1497 81.2261V81.2282Z" stroke="black" stroke-width="2" stroke-linejoin="round"/>
<path id="Vector_15" d="M78.9551 54.0995C78.9551 59.5855 76.7758 64.8469 72.8965 68.7261C69.0173 72.6053 63.756 74.7846 58.2699 74.7846C52.7839 74.7846 47.5225 72.6053 43.6433 68.7261C39.7641 64.8469 37.5847 59.5855 37.5847 54.0995C37.5847 48.6134 39.7641 43.3521 43.6433 39.4729C47.5225 35.5936 52.7839 33.4143 58.2699 33.4143C63.756 33.4143 69.0173 35.5936 72.8965 39.4729C76.7758 43.3521 78.9551 48.6134 78.9551 54.0995Z" fill="#FFB9AA"/>
<path id="Vector_16" d="M78.9551 54.0995C78.9551 59.5855 76.7758 64.8469 72.8965 68.7261C69.0173 72.6053 63.756 74.7846 58.2699 74.7846C52.7839 74.7846 47.5225 72.6053 43.6433 68.7261C39.7641 64.8469 37.5847 59.5855 37.5847 54.0995C37.5847 48.6134 39.7641 43.3521 43.6433 39.4729C47.5225 35.5936 52.7839 33.4143 58.2699 33.4143C63.756 33.4143 69.0173 35.5936 72.8965 39.4729C76.7758 43.3521 78.9551 48.6134 78.9551 54.0995Z" stroke="black" stroke-width="2" stroke-linejoin="round"/>
<path id="Vector_17" d="M20.1604 36.6839L34.5254 33.5119L22.5524 29.3215L8.19172 32.4957L15.1987 45.4264L27.1696 49.6167L20.1604 36.6839Z" stroke="black" stroke-width="2" stroke-linejoin="round"/>
<path id="Vector_18" d="M26.6082 81.5187L29.6914 67.1364L17.7206 62.9482L14.6396 77.3306L26.6104 81.5187H26.6082Z" stroke="black" stroke-width="2" stroke-linejoin="round"/>
</g>
</svg>
