<svg width="105" height="104" viewBox="0 0 105 104" fill="none" xmlns="http://www.w3.org/2000/svg">
<g id="Frame">
<path id="Vector" d="M100.167 90.727L91.2292 99.6645H73.9501V99.4782C73.9501 97.1871 73.04 94.9899 71.4199 93.3699C69.7999 91.7498 67.6027 90.8397 65.3116 90.8397L56.6709 99.6645H39.3917V99.4782C39.3917 97.1871 38.4816 94.9899 36.8616 93.3699C35.2416 91.7498 33.0443 90.8397 30.7533 90.8397L22.1126 99.6645H4.83341L13.7709 90.727H31.0501V90.5407C31.0501 89.4061 31.2736 88.2827 31.7077 87.2345C32.1419 86.1863 32.7783 85.2339 33.5806 84.4316C34.3828 83.6293 35.3352 82.993 36.3834 82.5588C37.4316 82.1246 38.5551 81.9011 39.6897 81.9011C40.8242 81.9011 41.9477 82.1246 42.9959 82.5588C44.0441 82.993 44.9965 83.6293 45.7988 84.4316C46.601 85.2339 47.2374 86.1863 47.6716 87.2345C48.1058 88.2827 48.3292 89.4061 48.3292 90.5407V90.727H65.6084V90.5407C65.6084 88.2493 66.5187 86.0518 68.1389 84.4316C69.7591 82.8114 71.9566 81.9011 74.248 81.9011C76.5394 81.9011 78.7369 82.8114 80.3571 84.4316C81.9773 86.0518 82.8876 88.2493 82.8876 90.5407V90.727H100.167Z" fill="#89DCFF"/>
<path id="Vector_2" d="M4.83522 99.6666V82.3874H5.02155C7.31291 82.3874 9.51042 81.4772 11.1307 79.8569C12.7509 78.2367 13.6611 76.0392 13.6611 73.7478C13.6611 71.4565 12.7509 69.259 11.1307 67.6387C9.51042 66.0185 7.31291 65.1083 5.02155 65.1083H4.83305V47.8291H5.01938C7.31074 47.8291 9.50825 46.9188 11.1285 45.2986C12.7487 43.6784 13.659 41.4809 13.659 39.1895C13.659 36.8981 12.7487 34.7006 11.1285 33.0804C9.50825 31.4602 7.31074 30.5499 5.01938 30.5499H4.83305V13.2708L13.7727 4.33325V21.6124H13.959C16.2504 21.6124 18.4479 22.5227 20.0682 24.1429C21.6884 25.7631 22.5986 27.9606 22.5986 30.252C22.5986 32.5434 21.6884 34.7409 20.0682 36.3611C18.4479 37.9813 16.2504 38.8916 13.959 38.8916H13.7727V56.1708H13.959C15.0936 56.1708 16.2171 56.3942 17.2653 56.8284C18.3135 57.2626 19.2659 57.899 20.0682 58.7012C20.8704 59.5035 21.5068 60.4559 21.941 61.5041C22.3752 62.5523 22.5986 63.6758 22.5986 64.8103C22.5986 65.9449 22.3752 67.0684 21.941 68.1166C21.5068 69.1648 20.8704 70.1172 20.0682 70.9194C19.2659 71.7217 18.3135 72.3581 17.2653 72.7923C16.2171 73.2264 15.0936 73.4499 13.959 73.4499H13.7727V90.7291L4.83522 99.6666Z" fill="#89DCFF"/>
<path id="Vector_3" d="M82.1355 22.7629H31.8103V73.0881H82.1355V22.7629Z" fill="#94E986"/>
<path id="Vector_4" fill-rule="evenodd" clip-rule="evenodd" d="M13.7709 4.33325V21.6124H13.9572C16.2249 21.6483 18.3876 22.5744 19.9785 24.1907C21.5694 25.807 22.4611 27.9841 22.4611 30.252C22.4611 32.52 21.5694 34.697 19.9785 36.3133C18.3876 37.9296 16.2249 38.8557 13.9572 38.8916H13.7709V56.1708H13.9572C16.2249 56.2067 18.3876 57.1327 19.9785 58.749C21.5694 60.3654 22.4611 62.5424 22.4611 64.8103C22.4611 67.0783 21.5694 69.2553 19.9785 70.8716C18.3876 72.488 16.2249 73.414 13.9572 73.4499H13.7709V90.7291H31.0501V90.5428C31.0501 88.2514 31.9603 86.0539 33.5806 84.4336C35.2008 82.8134 37.3983 81.9032 39.6897 81.9032C41.981 81.9032 44.1785 82.8134 45.7988 84.4336C47.419 86.0539 48.3292 88.2514 48.3292 90.5428V90.7291H65.6084V90.5428C65.6084 88.2514 66.5187 86.0539 68.1389 84.4336C69.7591 82.8134 71.9566 81.9032 74.248 81.9032C76.5394 81.9032 78.7369 82.8134 80.3571 84.4336C81.9773 86.0539 82.8876 88.2514 82.8876 90.5428V90.7291H100.167V73.4499H99.9826C98.848 73.4499 97.7246 73.2264 96.6764 72.7923C95.6282 72.3581 94.6757 71.7217 93.8735 70.9194C93.0712 70.1172 92.4348 69.1648 92.0006 68.1166C91.5665 67.0684 91.343 65.9449 91.343 64.8103C91.343 63.6758 91.5665 62.5523 92.0006 61.5041C92.4348 60.4559 93.0712 59.5035 93.8735 58.7012C94.6757 57.899 95.6282 57.2626 96.6764 56.8284C97.7246 56.3942 98.848 56.1708 99.9826 56.1708H100.167V38.8916H99.9826C97.6912 38.8916 95.4937 37.9813 93.8735 36.3611C92.2532 34.7409 91.343 32.5434 91.343 30.252C91.343 27.9606 92.2532 25.7631 93.8735 24.1429C95.4937 22.5227 97.6912 21.6124 99.9826 21.6124H100.167V4.33325H82.8876V4.51742C82.8876 6.80878 81.9773 9.00629 80.3571 10.6265C78.7369 12.2468 76.5394 13.157 74.248 13.157C71.9566 13.157 69.7591 12.2468 68.1389 10.6265C66.5187 9.00629 65.6084 6.80878 65.6084 4.51742V4.33325H48.3292V4.51742C48.2933 6.78508 47.3673 8.94772 45.751 10.5387C44.1346 12.1296 41.9576 13.0213 39.6897 13.0213C37.4217 13.0213 35.2447 12.1296 33.6284 10.5387C32.012 8.94772 31.086 6.78508 31.0501 4.51742V4.33325H13.7709ZM31.8084 22.7629H82.1336V73.0881H31.8084V22.7629Z" fill="#FFCE51"/>
<path id="Vector_5" d="M13.7709 21.6124V4.33325H31.0501V4.51742C31.0501 5.65198 31.2736 6.77544 31.7077 7.82364C32.1419 8.87185 32.7783 9.82427 33.5806 10.6265C34.3828 11.4288 35.3352 12.0652 36.3834 12.4994C37.4316 12.9335 38.5551 13.157 39.6897 13.157C40.8242 13.157 41.9477 12.9335 42.9959 12.4994C44.0441 12.0652 44.9965 11.4288 45.7988 10.6265C46.601 9.82427 47.2374 8.87185 47.6716 7.82364C48.1058 6.77544 48.3292 5.65198 48.3292 4.51742V4.33325H65.6084V4.51742C65.6443 6.78508 66.5704 8.94772 68.1867 10.5387C69.803 12.1296 71.98 13.0213 74.248 13.0213C76.5159 13.0213 78.693 12.1296 80.3093 10.5387C81.9256 8.94772 82.8517 6.78508 82.8876 4.51742V4.33325H100.167V21.6124H99.9826C97.7149 21.6483 95.5523 22.5744 93.9613 24.1907C92.3704 25.807 91.4787 27.9841 91.4787 30.252C91.4787 32.52 92.3704 34.697 93.9613 36.3133C95.5523 37.9296 97.7149 38.8557 99.9826 38.8916H100.167V56.1708H99.9826C98.848 56.1708 97.7246 56.3942 96.6764 56.8284C95.6282 57.2626 94.6757 57.899 93.8735 58.7012C93.0712 59.5035 92.4348 60.4559 92.0006 61.5041C91.5665 62.5523 91.343 63.6758 91.343 64.8103C91.343 65.9449 91.5665 67.0684 92.0006 68.1166C92.4348 69.1648 93.0712 70.1172 93.8735 70.9194C94.6757 71.7217 95.6282 72.3581 96.6764 72.7923C97.7246 73.2264 98.848 73.4499 99.9826 73.4499H100.167V90.7291H82.8876V90.5428C82.8876 88.2514 81.9773 86.0539 80.3571 84.4336C78.7369 82.8134 76.5394 81.9032 74.248 81.9032C71.9566 81.9032 69.7591 82.8134 68.1389 84.4336C66.5187 86.0539 65.6084 88.2514 65.6084 90.5428V90.7291H48.3292V90.5428C48.3292 88.2514 47.419 86.0539 45.7988 84.4336C44.1785 82.8134 41.981 81.9032 39.6897 81.9032C37.3983 81.9032 35.2008 82.8134 33.5806 84.4336C31.9603 86.0539 31.0501 88.2514 31.0501 90.5428V90.7291H13.7709V73.4499H13.9572C16.2249 73.414 18.3876 72.488 19.9785 70.8716C21.5694 69.2553 22.4611 67.0783 22.4611 64.8103C22.4611 62.5424 21.5694 60.3654 19.9785 58.749C18.3876 57.1327 16.2249 56.2067 13.9572 56.1708H13.7709V38.8916H13.9572C16.2249 38.8557 18.3876 37.9296 19.9785 36.3133C21.5694 34.697 22.4611 32.52 22.4611 30.252C22.4611 27.9841 21.5694 25.807 19.9785 24.1907C18.3876 22.5744 16.2249 21.6483 13.9572 21.6124H13.7709Z" stroke="black" stroke-width="0.433333" stroke-linecap="round" stroke-linejoin="round"/>
<path id="Vector_6" d="M82.3252 23H32V73.3252H82.3252V23Z" stroke="black" stroke-width="0.433333" stroke-linejoin="round"/>
<path id="Vector_7" d="M100.167 90.727L91.2292 99.6645H73.9501V99.4782C73.9501 97.1871 73.04 94.9899 71.4199 93.3699C69.7999 91.7498 67.6027 90.8397 65.3116 90.8397L56.6709 99.6645H39.3917V99.4782C39.3917 97.1871 38.4816 94.9899 36.8616 93.3699C35.2416 91.7498 33.0443 90.8397 30.7532 90.8397L22.1126 99.6645H4.83341L13.7709 90.727H31.0501V90.5407C31.0501 89.4061 31.2736 88.2827 31.7077 87.2345C32.1419 86.1863 32.7783 85.2339 33.5806 84.4316C34.3828 83.6293 35.3352 82.993 36.3834 82.5588C37.4316 82.1246 38.5551 81.9011 39.6897 81.9011C40.8242 81.9011 41.9477 82.1246 42.9959 82.5588C44.0441 82.993 44.9965 83.6293 45.7988 84.4316C46.601 85.2339 47.2374 86.1863 47.6716 87.2345C48.1058 88.2827 48.3292 89.4061 48.3292 90.5407V90.727H65.6084V90.5407C65.6084 88.2493 66.5187 86.0518 68.1389 84.4316C69.7591 82.8114 71.9566 81.9011 74.248 81.9011C76.5394 81.9011 78.7369 82.8114 80.3571 84.4316C81.9773 86.0518 82.8876 88.2493 82.8876 90.5407V90.727H100.167Z" stroke="black" stroke-width="0.433333" stroke-linecap="round" stroke-linejoin="round"/>
<path id="Vector_8" d="M4.83325 29.8132L13.7708 20.8757" stroke="black" stroke-width="0.433333" stroke-linecap="round" stroke-linejoin="round"/>
<path id="Vector_9" d="M4.83325 64.6967L13.7708 55.7571" stroke="black" stroke-width="0.433333" stroke-linecap="round" stroke-linejoin="round"/>
<path id="Vector_10" d="M74.3618 99.6667L83.2993 90.7292" stroke="black" stroke-width="0.433333" stroke-linecap="round" stroke-linejoin="round"/>
<path id="Vector_11" d="M39.593 99.6667L48.5305 90.7292" stroke="black" stroke-width="0.433333" stroke-linecap="round" stroke-linejoin="round"/>
<path id="Vector_12" d="M4.83522 99.6666V82.3874H5.02155C7.31291 82.3874 9.51042 81.4772 11.1307 79.8569C12.7509 78.2367 13.6611 76.0392 13.6611 73.7478C13.6611 71.4565 12.7509 69.259 11.1307 67.6387C9.51042 66.0185 7.31291 65.1083 5.02155 65.1083H4.83305V47.8291H5.01938C7.31074 47.8291 9.50825 46.9188 11.1285 45.2986C12.7487 43.6784 13.659 41.4809 13.659 39.1895C13.659 36.8981 12.7487 34.7006 11.1285 33.0804C9.50825 31.4602 7.31074 30.5499 5.01938 30.5499H4.83305V13.2708L13.7727 4.33325V21.6124H13.959C16.2504 21.6124 18.4479 22.5227 20.0682 24.1429C21.6884 25.7631 22.5986 27.9606 22.5986 30.252C22.5986 32.5434 21.6884 34.7409 20.0682 36.3611C18.4479 37.9813 16.2504 38.8916 13.959 38.8916H13.7727V56.1708H13.959C15.0936 56.1708 16.2171 56.3942 17.2653 56.8284C18.3135 57.2626 19.2659 57.899 20.0682 58.7012C20.8704 59.5035 21.5068 60.4559 21.941 61.5041C22.3752 62.5523 22.5986 63.6758 22.5986 64.8103C22.5986 65.9449 22.3752 67.0684 21.941 68.1166C21.5068 69.1648 20.8704 70.1172 20.0682 70.9194C19.2659 71.7217 18.3135 72.3581 17.2653 72.7923C16.2171 73.2264 15.0936 73.4499 13.959 73.4499H13.7727V90.7291L4.83522 99.6666Z" stroke="black" stroke-width="0.433333" stroke-linecap="round" stroke-linejoin="round"/>
</g>
</svg>
