<svg width="93" height="104" viewBox="0 0 93 104" fill="none" xmlns="http://www.w3.org/2000/svg">
<g id="Frame">
<path id="Vector" d="M88.6667 23.9158V68.2718H61.0201V95.9184H16.6684V51.5581H44.3151V23.9158H88.6667Z" fill="#89DCFF"/>
<path id="Vector_2" d="M65.3339 8.08179L88.6667 23.9158H44.3107L20.9801 8.08179H65.3361H65.3339Z" fill="#94E986"/>
<path id="Vector_3" d="M44.3086 51.5579H16.6641L-6.66657 35.7283H20.9779L44.3086 51.5601V51.5579Z" fill="#94E986"/>
<path id="Vector_4" d="M44.3084 23.9158V51.5603L20.9799 35.7285V8.08179L44.3105 23.9158H44.3084Z" fill="#F11F9D"/>
<path id="Vector_5" d="M16.6685 51.5579V95.9139L-6.66655 80.0821V35.7261L16.6685 51.5579Z" fill="#F11F9D"/>
<path id="Vector_6" d="M88.6667 23.9158V68.2718H61.0201V95.9184H16.6684V51.5581H44.3151V23.9158H88.6667Z" stroke="black" stroke-width="2" stroke-linejoin="round"/>
<path id="Vector_7" d="M65.3339 8.08179L88.6667 23.9158H44.3107L20.9801 8.08179H65.3361H65.3339Z" stroke="black" stroke-width="2" stroke-linejoin="round"/>
<path id="Vector_8" d="M44.3086 51.5579H16.6641L-6.66657 35.7283H20.9779L44.3086 51.5601V51.5579Z" stroke="black" stroke-width="2" stroke-linejoin="round"/>
<path id="Vector_9" d="M44.3084 23.9158V51.5603L20.9799 35.7285V8.08179L44.3105 23.9158H44.3084Z" stroke="black" stroke-width="2" stroke-linejoin="round"/>
<path id="Vector_10" d="M16.6685 51.5579V95.9139L-6.66655 80.0821V35.7261L16.6685 51.5579Z" stroke="black" stroke-width="2" stroke-linejoin="round"/>
</g>
</svg>
